<?xml version="1.0"?>
<svg width="1035" height="475" xmlns="http://www.w3.org/2000/svg" xmlns:svg="http://www.w3.org/2000/svg">
 <style type="text/css">.st0{fill:#F2F4FF;}</style>

 <g class="layer">
  <title>Layer 1</title>
  <g id="svg_136">
   <g id="svg_47">
    <path class="st0" d="m406.6,152.8l50.4,0l0,13l-36.3,0l0,18.4l33.6,0l0,13l-33.6,0l0,31.4l-14.1,0l0,-75.8z" id="svg_48"/>
    <path class="st0" d="m461.3,173.4l13.5,0l0,32c0,7 4.9,11.9 11.9,11.9c7,0 11.9,-4.9 11.9,-11.9l0,-32l13.5,0l0,55.2l-12.5,0l-1.1,-5.4l-0.5,0c-1,1.2 -2.3,2.3 -3.7,3.2c-2.5,1.6 -6.4,3.2 -11.5,3.2c-12.5,0 -21.7,-9.2 -21.7,-23.3l0,-32.9l0.2,0z" id="svg_49"/>
    <path class="st0" d="m523.1,173.4l12.5,0l1.1,5.4l0.5,0c1,-1.2 2.3,-2.3 3.7,-3.2c2.5,-1.6 6.3,-3.2 11.5,-3.2c12.5,0 21.7,9.2 21.7,23.3l0,33l-13.5,0l0,-32c0,-7 -4.9,-11.9 -11.9,-11.9c-7,0 -11.9,4.9 -11.9,11.9l0,32l-13.5,0l0,-55.3l-0.2,0z" id="svg_50"/>
    <path class="st0" d="m623.8,222.7l-0.5,0c-1.1,1.4 -2.4,2.6 -3.9,3.6c-2.6,1.7 -6.7,3.5 -12.3,3.5c-14.1,0 -25.5,-11.4 -25.5,-28.7c0,-17.3 11.4,-28.7 25.5,-28.7c5.5,0 9.3,1.8 11.9,3.6c1.5,1 2.8,2.2 3.8,3.5l0.5,0l0,-26.7l13.5,0l0,75.8l-11.9,0l-1.1,-5.9zm-0.5,-21.7c0,-10.4 -5.8,-16.2 -14.1,-16.2c-8.2,0 -14.1,5.8 -14.1,16.2c0,10.4 5.9,16.2 14.1,16.2c8.2,0.1 14.1,-5.8 14.1,-16.2z" id="svg_51"/>
    <path class="st0" d="m681.8,223.2l-0.5,0c-1,1.2 -2.3,2.3 -3.8,3.2c-2.6,1.6 -6.4,3.2 -11.9,3.2c-12.6,0 -20,-7.7 -20,-16.8c0,-10.8 7.6,-18.4 22.7,-18.4l12.5,0l0,-1.1c0,-6.1 -3.7,-10.3 -9.7,-10.3c-6.1,0 -9.2,3.9 -9.7,7l-13.5,0c1.2,-9.1 8.6,-17.9 23.3,-17.9c14.1,0 23.3,9.3 23.3,21.1l0,35.2l-11.4,0l-1.3,-5.2zm-1.1,-18.4l-11.4,0c-7,0 -10.3,2.7 -10.3,7c0,4.3 3.1,7 8.7,7c8.2,0 13,-4.8 13,-12.5l0,-1.5z" id="svg_52"/>
    <path class="st0" d="m756,208c-1.7,8.7 -8.6,21.7 -26,21.7c-16.2,0 -28.2,-11.9 -28.2,-28.7c0,-16.8 11.9,-28.7 28.2,-28.7c17.4,0 24.3,13 26,21.1l-13.5,0c-1.2,-3.1 -4.3,-8.7 -12.5,-8.7c-8.1,0 -14.6,6.5 -14.6,16.2s6.5,16.2 14.6,16.2c8.1,0 11.3,-5.4 12.5,-9.2l13.5,0l0,0.1z" id="svg_53"/>
    <path class="st0" d="m763.6,173.4l13.5,0l0,55.2l-13.5,0l0,-55.2z" id="svg_54"/>
    <path class="st0" d="m841.6,201c0,16.8 -11.9,28.7 -28.2,28.7c-16.2,0 -28.2,-11.9 -28.2,-28.7c0,-16.8 11.9,-28.7 28.2,-28.7c16.3,0 28.2,11.9 28.2,28.7zm-13.6,0c0,-9.7 -6.5,-16.2 -14.6,-16.2c-8.1,0 -14.6,6.5 -14.6,16.2s6.5,16.2 14.6,16.2c8.1,0.1 14.6,-6.4 14.6,-16.2zm-9.7,-50.9l14.1,0l-13,15.7l-11.4,0l10.3,-15.7z" id="svg_55"/>
    <path class="st0" d="m849.7,173.4l12.5,0l1.1,5.4l0.5,0c1,-1.2 2.3,-2.3 3.7,-3.2c2.5,-1.6 6.3,-3.2 11.5,-3.2c12.5,0 21.7,9.2 21.7,23.3l0,33l-13.5,0l0,-32c0,-7 -4.9,-11.9 -11.9,-11.9c-7,0 -11.9,4.9 -11.9,11.9l0,32l-13.5,0l0,-55.3l-0.2,0z" id="svg_56"/>
    <g id="svg_57">
     <g id="svg_58">
      <circle class="st0" cx="770.3" cy="157.4" id="svg_59" r="7.999996"/>
     </g>
    </g>
   </g>
   <g id="svg_21">
    <g id="svg_22">
     <path class="st0" d="m423.4,272.5l-22.7,0l0,-13.5l59.6,0l0,13.5l-22.7,0l0,62.3l-14.1,0l0,-62.3l-0.1,0z" id="svg_23"/>
    </g>
    <g id="svg_24">
     <path class="st0" d="m507.8,318.6c-1.2,4.3 -8,17.3 -25.5,17.3c-16.2,0 -28.2,-11.9 -28.2,-28.7c0,-16.8 11.9,-28.7 28.2,-28.7c15.2,0 27.1,11.9 27.1,27.6c0,1.6 -0.2,2.9 -0.3,3.9l-0.2,1.5l-41.2,0c1.2,7.7 6.9,13 14.6,13c6.4,0 10.3,-3.7 11.4,-6l14.1,0l0,0.1zm-11.9,-16.3c-1.2,-7 -5.8,-12.5 -13.5,-12.5c-8.2,0 -13,5.4 -14.6,12.5l28.1,0z" id="svg_25"/>
    </g>
    <g id="svg_26">
     <path class="st0" d="m517.5,259l13.5,0l0,75.8l-13.5,0l0,-75.8z" id="svg_27"/>
    </g>
    <g id="svg_28">
     <path class="st0" d="m592.8,318.6c-1.2,4.3 -8,17.3 -25.5,17.3c-16.2,0 -28.2,-11.9 -28.2,-28.7c0,-16.8 11.9,-28.7 28.2,-28.7c15.2,0 27.1,11.9 27.1,27.6c0,1.6 -0.2,2.9 -0.3,3.9l-0.2,1.5l-41.2,0c1.2,7.7 6.9,13 14.6,13c6.4,0 10.3,-3.7 11.4,-6l14.1,0l0,0.1zm-11.9,-16.3c-1.2,-7 -5.8,-12.5 -13.5,-12.5c-8.2,0 -13,5.4 -14.6,12.5l28.1,0z" id="svg_29"/>
    </g>
    <g id="svg_30">
     <path class="st0" d="m606.9,292.6l-9.2,0l0,-13l9.2,0l0,-8.1c0,-8.2 5.3,-13.5 13.5,-13.5l11.9,0l0,11.9l-8.1,0c-2.2,0 -3.8,1.6 -3.8,3.8l0,6l11.9,0l0,13l-11.9,0l0,42.2l-13.5,0l0,-42.3z" id="svg_31"/>
    </g>
    <g id="svg_32">
     <path class="st0" d="m690.7,307.2c0,16.8 -11.9,28.7 -28.2,28.7c-16.2,0 -28.2,-11.9 -28.2,-28.7c0,-16.8 11.9,-28.7 28.2,-28.7c16.2,0 28.2,11.9 28.2,28.7zm-13.6,0c0,-9.7 -6.5,-16.2 -14.6,-16.2c-8.1,0 -14.6,6.5 -14.6,16.2c0,9.7 6.5,16.2 14.6,16.2c8.1,0.1 14.6,-6.4 14.6,-16.2z" id="svg_33"/>
    </g>
    <g id="svg_34">
     <path class="st0" d="m698.8,279.6l12.5,0l1.1,5.4l0.5,0c1,-1.2 2.3,-2.3 3.7,-3.2c2.5,-1.6 6.3,-3.3 11.5,-3.3c12.5,0 21.7,9.2 21.7,23.3l0,33l-13.5,0l0,-32c0,-7 -4.9,-11.9 -11.9,-11.9c-7,0 -11.9,4.9 -11.9,11.9l0,32l-13.5,0l0,-55.2l-0.2,0z" id="svg_35"/>
    </g>
    <g id="svg_36">
     <path class="st0" d="m835.9,314.2c-1.7,8.7 -8.6,21.7 -26,21.7c-16.2,0 -28.2,-11.9 -28.2,-28.7c0,-16.8 11.9,-28.7 28.2,-28.7c17.4,0 24.3,13 26,21.1l-13.5,0c-1.2,-3.1 -4.3,-8.7 -12.5,-8.7c-8.1,0 -14.6,6.5 -14.6,16.2c0,9.7 6.5,16.2 14.6,16.2c8.1,0 11.3,-5.4 12.5,-9.2l13.5,0l0,0.1z" id="svg_37"/>
    </g>
    <g id="svg_38">
     <path class="st0" d="m876.8,329.4l-0.5,0c-1,1.2 -2.3,2.3 -3.8,3.2c-2.6,1.6 -6.4,3.2 -11.9,3.2c-12.6,0 -20,-7.7 -20,-16.8c0,-10.8 7.6,-18.4 22.7,-18.4l12.5,0l0,-1.1c0,-6.1 -3.7,-10.3 -9.7,-10.3c-6.1,0 -9.2,3.9 -9.7,7l-13.5,0c1.2,-9.1 8.6,-17.9 23.3,-17.9c14.1,0 23.3,9.3 23.3,21.1l0,35.2l-11.4,0l-1.3,-5.2zm-1.1,-18.4l-11.4,0c-7,0 -10.3,2.7 -10.3,7c0,4.3 3.1,7 8.7,7c8.2,0 13,-4.8 13,-12.5l0,-1.5z" id="svg_39"/>
    </g>
    <g id="svg_40">
     <path class="st0" d="m760,279.6l13.5,0l0,55.2l-13.5,0l0,-55.2z" id="svg_41"/>
    </g>
    <g id="svg_42">
     <g id="svg_43">
      <circle class="st0" cx="766.8" cy="263.6" id="svg_44" r="8"/>
     </g>
    </g>
    <g id="svg_45">
     <polygon class="st0" id="svg_46" points="667.4000244140625,256.3000030517578 681.5,256.3000030517578 668.5,272 657.0999755859375,272 "/>
    </g>
   </g>
   <g id="svg_2">
    <g id="svg_3">
     <g id="svg_4">
      <g id="svg_5">
       <g id="svg_6">
        <g id="svg_7">
         <circle class="st0" cx="164.7" cy="165.6" id="svg_8" r="30.699997"/>
        </g>
       </g>
       <g id="svg_9">
        <g id="svg_10">
         <circle class="st0" cx="236.8" cy="165.6" id="svg_11" r="30.699997"/>
        </g>
       </g>
       <g id="svg_12">
        <g id="svg_13">
         <circle class="st0" cx="309" cy="165.6" id="svg_14" r="30.700005"/>
        </g>
       </g>
       <g id="svg_15">
        <g id="svg_16">
         <circle class="st0" cx="236.8" cy="237.7" id="svg_17" r="30.699997"/>
        </g>
       </g>
       <g id="svg_18">
        <g id="svg_19">
         <circle class="st0" cx="236.8" cy="309.8" id="svg_20" r="30.699997"/>
        </g>
       </g>
      </g>
     </g>
    </g>
   </g>
  </g>
 </g>
</svg>